Coordinates
version=1
nRows=21
nColumns=22
inDegrees=yes

Units are S.I. units (second, meters, Newtons, ...)
If the header above contains a line with 'inDegrees', this indicates whether rotational values are in degrees (yes) or radians (no).

endheader
time	pelvis_tilt	pelvis_list	pelvis_rotation	pelvis_tx	pelvis_ty	pelvis_tz	hip_flexion_r	hip_adduction_r	hip_rotation_r	knee_angle_r	ankle_angle_r	subtalar_angle_r	hip_flexion_l	hip_adduction_l	hip_rotation_l	knee_angle_l	ankle_angle_l	subtalar_angle_l	lumbar_extension	lumbar_bending	lumbar_rotation
      5.35000000	     -3.65936818	      2.34279096	   -113.98987350	      0.53262937	      0.92143715	      0.33459605	     -2.86240817	     14.99056954	     16.30591516	    -12.83907204	      8.35863801	    -11.29336284	     26.45640324	    -11.17198693	      9.70006433	    -41.93152231	      8.48721672	     -0.11770981	     -6.43087410	      3.01319316	      2.65073135
      5.36000000	     -3.53318609	      2.38434189	   -114.83853478	      0.53074149	      0.92114869	      0.34143115	     -3.36701908	     14.67671658	     16.92042195	    -12.85751397	      8.66859703	    -11.20937036	     26.71039544	    -10.59484038	     10.91878450	    -39.55309858	      8.34175598	      0.39020231	     -6.29088409	      2.93920805	      2.71267485
      5.37000000	     -3.44651535	      2.40560138	   -115.61009110	      0.52889108	      0.92085444	      0.34840764	     -3.94545314	     14.36787541	     17.45305546	    -12.78091206	      8.90040316	    -11.11277140	     26.88830166	    -10.02676606	     12.28271099	    -37.12592360	      8.15456872	      1.07517582	     -6.17565128	      2.90334714	      2.74928843
      5.38000000	     -3.38587169	      2.41818675	   -116.32474293	      0.52704765	      0.92051751	      0.35547815	     -4.55708444	     14.06521818	     17.94602812	    -12.66297821	      9.11072953	    -11.00219333	     27.01165353	     -9.49255787	     13.70923733	    -34.66231551	      7.94337985	      1.79110131	     -6.07404150	      2.89704252	      2.75457951
      5.39000000	     -3.35558680	      2.42142933	   -117.00183132	      0.52515094	      0.92013690	      0.36262515	     -5.21248418	     13.77280155	     18.45060019	    -12.50003918	      9.28315798	    -10.87168064	     27.07827877	     -9.02098855	     15.14694224	    -32.17537997	      7.74031762	      2.56441438	     -5.99141157	      2.91558172	      2.72880381
      5.40000000	     -3.35649132	      2.40893587	   -117.63850752	      0.52318772	      0.91971103	      0.36985714	     -5.91947542	     13.48828625	     18.95114552	    -12.29344295	      9.45011521	    -10.73182405	     27.09379387	     -8.61781526	     16.54830678	    -29.68860738	      7.53292940	      3.31070121	     -5.93476443	      2.95427230	      2.66433086
      5.41000000	     -3.40113291	      2.37236075	   -118.23015415	      0.52117094	      0.91925252	      0.37718323	     -6.68897235	     13.21746802	     19.41267612	    -12.04798356	      9.60433926	    -10.60263132	     27.05771333	     -8.28982703	     17.87492911	    -27.22913336	      7.32174537	      3.94238994	     -5.92304973	      3.02108189	      2.57747833
      5.42000000	     -3.48176750	      2.34276574	   -118.82567959	      0.51898364	      0.91870766	      0.38457313	     -7.50589232	     12.96705586	     19.94038820	    -11.74830450	      9.71907619	    -10.47328560	     27.00684698	     -8.07486789	     19.00830351	    -24.83321378	      7.16640921	      4.64802478	     -5.91697932	      3.11642379	      2.53563711
      5.43000000	     -3.59558788	      2.31983003	   -119.40908936	      0.51666979	      0.91806331	      0.39204681	     -8.35235628	     12.73640165	     20.47751287	    -11.42382187	      9.81796291	    -10.36391558	     26.95923965	     -7.94838122	     19.93323725	    -22.54257814	      7.04528604	      5.32124298	     -5.91811433	      3.23858331	      2.52066265
      5.44000000	     -3.73983528	      2.30108799	   -119.98643212	      0.51421661	      0.91731926	      0.39959936	     -9.22894345	     12.52341240	     21.03495531	    -11.08000818	      9.90510600	    -10.27505189	     26.91880066	     -7.89709700	     20.62305082	    -20.39481946	      6.95251004	      5.96171359	     -5.93084189	      3.38022323	      2.51300155
      5.45000000	     -3.91121326	      2.29335972	   -120.56213393	      0.51162686	      0.91646382	      0.40723097	    -10.12065200	     12.32973393	     21.59425554	    -10.73194065	      9.97686815	    -10.20703704	     26.89740926	     -7.90745831	     21.07673009	    -18.43033145	      6.89114337	      6.52283222	     -5.94999561	      3.53981165	      2.53147407
      5.46000000	     -4.10340324	      2.30226813	   -121.14128739	      0.50890985	      0.91548598	      0.41493468	    -11.01112986	     12.15311138	     22.14227269	    -10.39519908	     10.04327483	    -10.15333265	     26.90679771	     -7.96295927	     21.31490707	    -16.69204218	      6.86695907	      6.99116204	     -5.96958131	      3.71496870	      2.58534105
      5.47000000	     -4.31077609	      2.33592899	   -121.72112799	      0.50607240	      0.91437316	      0.42270235	    -11.88111111	     11.99816555	     22.65539732	    -10.08627596	     10.11521954	    -10.10679106	     26.95984353	     -8.04808586	     21.37781484	    -15.21616366	      6.88519377	      7.33592814	     -5.98149978	      3.90428062	      2.67373427
      5.48000000	     -4.53337619	      2.41363587	   -122.31720274	      0.50309558	      0.91311213	      0.43048315	    -12.70234164	     11.87885200	     23.15967007	     -9.82711318	     10.18611377	    -10.05818727	     27.08063486	     -8.16986552	     21.28773041	    -14.04785097	      6.93277533	      7.51885573	     -5.97529879	      4.12161959	      2.77664586
      5.49000000	     -4.76038399	      2.49714648	   -122.92221444	      0.49998836	      0.91175753	      0.43834389	    -13.50899108	     11.75967921	     23.58869922	     -9.60808634	     10.25787072	    -10.00516890	     27.21905201	     -8.28615178	     21.11624094	    -13.18742735	      7.04140799	      7.62334397	     -5.97464975	      4.33531039	      2.90778016
      5.50000000	     -4.99109941	      2.63242997	   -123.54187406	      0.49675262	      0.91025311	      0.44623370	    -14.24961878	     11.67178743	     23.98177041	     -9.44664366	     10.34054780	     -9.94491895	     27.43037414	     -8.41497930	     20.91808753	    -12.66924141	      7.16374604	      7.65097651	     -5.94040130	      4.57696833	      3.06973457
      5.51000000	     -5.21238438	      2.78808037	   -124.18005648	      0.49336007	      0.90865837	      0.45419335	    -14.94454301	     11.58627768	     24.34165635	     -9.35132058	     10.41483800	     -9.87787324	     27.65359084	     -8.53480740	     20.74035124	    -12.44286295	      7.29339216	      7.66450574	     -5.88677404	      4.81347681	      3.21426535
      5.52000000	     -5.42544886	      2.97449748	   -124.83091062	      0.48986826	      0.90697577	      0.46223585	    -15.58922996	     11.50634566	     24.69014991	     -9.31129679	     10.50708200	     -9.80925928	     27.90022119	     -8.64139352	     20.65512782	    -12.51070747	      7.35937904	      7.69705401	     -5.80860922	      5.06251469	      3.35033898
      5.53000000	     -5.60721068	      3.17971846	   -125.50918500	      0.48625961	      0.90524630	      0.47035876	    -16.17612609	     11.40431605	     25.02560256	     -9.33348410	     10.56057570	     -9.74455717	     28.15268360	     -8.71473590	     20.71237415	    -12.84512043	      7.32601973	      7.79654009	     -5.69855710	      5.28576526	      3.52813654
      5.54000000	     -5.74432084	      3.40730417	   -126.19949992	      0.48258001	      0.90348941	      0.47857518	    -16.68891046	     11.27730387	     25.37268867	     -9.42335031	     10.60916505	     -9.70004937	     28.41017224	     -8.74077679	     20.95760155	    -13.40168267	      7.12877603	      7.98097253	     -5.54340151	      5.48330743	      3.66273543
      5.55000000	     -5.80240251	      3.68418994	   -126.89572798	      0.47887732	      0.90168377	      0.48691936	    -17.06893259	     11.11698292	     25.65297688	     -9.59578121	     10.61814666	     -9.68858633	     28.72076015	     -8.69717579	     21.42769405	    -14.16812206	      6.74632942	      8.55557574	     -5.28592715	      5.64920911	      3.81595057
